<?xml version="1.0" encoding="UTF-8" standalone="no"?>
<svg
   xmlns:dc="http://purl.org/dc/elements/1.1/"
   xmlns:cc="http://creativecommons.org/ns#"
   xmlns:rdf="http://www.w3.org/1999/02/22-rdf-syntax-ns#"
   xmlns:svg="http://www.w3.org/2000/svg"
   xmlns="http://www.w3.org/2000/svg"
   xmlns:sodipodi="http://sodipodi.sourceforge.net/DTD/sodipodi-0.dtd"
   xmlns:inkscape="http://www.inkscape.org/namespaces/inkscape"
   version="1.1"
   id="svg138"
   xml:space="preserve"
   width="26.666668"
   height="26.666668"
   viewBox="0 0 26.666668 26.666668"
   sodipodi:docname="mnu-icon-4.svg"
   inkscape:version="1.0.1 (1.0.1+r75)"><metadata
     id="metadata144"><rdf:RDF><cc:Work
         rdf:about=""><dc:format>image/svg+xml</dc:format><dc:type
           rdf:resource="http://purl.org/dc/dcmitype/StillImage" /><dc:title></dc:title></cc:Work></rdf:RDF></metadata><defs
     id="defs142"><clipPath
       clipPathUnits="userSpaceOnUse"
       id="clipPath154"><path
         d="M 0,20 H 20 V 0 H 0 Z"
         id="path152" /></clipPath></defs><sodipodi:namedview
     pagecolor="#ffffff"
     bordercolor="#666666"
     borderopacity="1"
     objecttolerance="10"
     gridtolerance="10"
     guidetolerance="10"
     inkscape:pageopacity="0"
     inkscape:pageshadow="2"
     inkscape:window-width="793"
     inkscape:window-height="480"
     id="namedview140"
     showgrid="false"
     inkscape:zoom="31.162499"
     inkscape:cx="13.333334"
     inkscape:cy="13.333334"
     inkscape:window-x="0"
     inkscape:window-y="27"
     inkscape:window-maximized="0"
     inkscape:current-layer="g146" /><g
     id="g146"
     inkscape:groupmode="layer"
     inkscape:label="mnu-icon-4"
     transform="matrix(1.3333333,0,0,-1.3333333,0,26.666667)"><g
       id="g148"><g
         id="g150"
         clip-path="url(#clipPath154)"><path
           d="M 19,1 H 1 v 16 h 18 z"
           style="fill:none;stroke:#5384ff;stroke-width:2;stroke-linecap:round;stroke-linejoin:round;stroke-miterlimit:10;stroke-dasharray:none;stroke-opacity:1"
           id="path156" /><g
           id="g158"
           transform="translate(14,19)"><path
             d="M 0,0 V -4"
             style="fill:none;stroke:#5384ff;stroke-width:2;stroke-linecap:round;stroke-linejoin:round;stroke-miterlimit:10;stroke-dasharray:none;stroke-opacity:1"
             id="path160" /></g><g
           id="g162"
           transform="translate(6,19)"><path
             d="M 0,0 V -4"
             style="fill:none;stroke:#5384ff;stroke-width:2;stroke-linecap:round;stroke-linejoin:round;stroke-miterlimit:10;stroke-dasharray:none;stroke-opacity:1"
             id="path164" /></g><g
           id="g166"
           transform="translate(6.5312,9)"><path
             d="M 0,0 H -1.062 C -1.321,0 -1.531,0.21 -1.531,0.469 V 1.531 C -1.531,1.79 -1.321,2 -1.062,2 H 0 C 0.259,2 0.469,1.79 0.469,1.531 V 0.469 C 0.469,0.21 0.259,0 0,0"
             style="fill:#5384ff;fill-opacity:1;fill-rule:nonzero;stroke:none"
             id="path168" /></g><g
           id="g170"
           transform="translate(10.5312,9)"><path
             d="M 0,0 H -1.062 C -1.321,0 -1.531,0.21 -1.531,0.469 V 1.531 C -1.531,1.79 -1.321,2 -1.062,2 H 0 C 0.259,2 0.469,1.79 0.469,1.531 V 0.469 C 0.469,0.21 0.259,0 0,0"
             style="fill:#5384ff;fill-opacity:1;fill-rule:nonzero;stroke:none"
             id="path172" /></g><g
           id="g174"
           transform="translate(14.5312,9)"><path
             d="M 0,0 H -1.062 C -1.321,0 -1.531,0.21 -1.531,0.469 V 1.531 C -1.531,1.79 -1.321,2 -1.062,2 H 0 C 0.259,2 0.469,1.79 0.469,1.531 V 0.469 C 0.469,0.21 0.259,0 0,0"
             style="fill:#5384ff;fill-opacity:1;fill-rule:nonzero;stroke:none"
             id="path176" /></g><g
           id="g178"
           transform="translate(6.5312,5)"><path
             d="M 0,0 H -1.062 C -1.321,0 -1.531,0.21 -1.531,0.469 V 1.531 C -1.531,1.79 -1.321,2 -1.062,2 H 0 C 0.259,2 0.469,1.79 0.469,1.531 V 0.469 C 0.469,0.21 0.259,0 0,0"
             style="fill:#5384ff;fill-opacity:1;fill-rule:nonzero;stroke:none"
             id="path180" /></g><g
           id="g182"
           transform="translate(10.5312,5)"><path
             d="M 0,0 H -1.062 C -1.321,0 -1.531,0.21 -1.531,0.469 V 1.531 C -1.531,1.79 -1.321,2 -1.062,2 H 0 C 0.259,2 0.469,1.79 0.469,1.531 V 0.469 C 0.469,0.21 0.259,0 0,0"
             style="fill:#5384ff;fill-opacity:1;fill-rule:nonzero;stroke:none"
             id="path184" /></g><g
           id="g186"
           transform="translate(14.5312,5)"><path
             d="M 0,0 H -1.062 C -1.321,0 -1.531,0.21 -1.531,0.469 V 1.531 C -1.531,1.79 -1.321,2 -1.062,2 H 0 C 0.259,2 0.469,1.79 0.469,1.531 V 0.469 C 0.469,0.21 0.259,0 0,0"
             style="fill:#5384ff;fill-opacity:1;fill-rule:nonzero;stroke:none"
             id="path188" /></g></g></g></g></svg>
