<?xml version="1.0" encoding="UTF-8" standalone="no"?>
<svg
   xmlns:dc="http://purl.org/dc/elements/1.1/"
   xmlns:cc="http://creativecommons.org/ns#"
   xmlns:rdf="http://www.w3.org/1999/02/22-rdf-syntax-ns#"
   xmlns:svg="http://www.w3.org/2000/svg"
   xmlns="http://www.w3.org/2000/svg"
   xmlns:sodipodi="http://sodipodi.sourceforge.net/DTD/sodipodi-0.dtd"
   xmlns:inkscape="http://www.inkscape.org/namespaces/inkscape"
   version="1.1"
   id="svg216"
   xml:space="preserve"
   width="28"
   height="29.333332"
   viewBox="0 0 28 29.333332"
   sodipodi:docname="mnu-icon-6.svg"
   inkscape:version="1.0.1 (1.0.1+r75)"><metadata
     id="metadata222"><rdf:RDF><cc:Work
         rdf:about=""><dc:format>image/svg+xml</dc:format><dc:type
           rdf:resource="http://purl.org/dc/dcmitype/StillImage" /><dc:title></dc:title></cc:Work></rdf:RDF></metadata><defs
     id="defs220"><clipPath
       clipPathUnits="userSpaceOnUse"
       id="clipPath232"><path
         d="M 0,22 H 21 V 0 H 0 Z"
         id="path230" /></clipPath></defs><sodipodi:namedview
     pagecolor="#ffffff"
     bordercolor="#666666"
     borderopacity="1"
     objecttolerance="10"
     gridtolerance="10"
     guidetolerance="10"
     inkscape:pageopacity="0"
     inkscape:pageshadow="2"
     inkscape:window-width="836"
     inkscape:window-height="480"
     id="namedview218"
     showgrid="false"
     inkscape:zoom="28.329547"
     inkscape:cx="14"
     inkscape:cy="14.666666"
     inkscape:window-x="0"
     inkscape:window-y="27"
     inkscape:window-maximized="0"
     inkscape:current-layer="g224" /><g
     id="g224"
     inkscape:groupmode="layer"
     inkscape:label="mnu-icon-6"
     transform="matrix(1.3333333,0,0,-1.3333333,0,29.333333)"><g
       id="g226"><g
         id="g228"
         clip-path="url(#clipPath232)"><g
           id="g234"
           transform="translate(18.2589,11)"><path
             d="M 0,0 C 0,0.514 -0.051,1.015 -0.141,1.502 L 1.741,3.346 -0.199,6.81 -2.692,6.05 C -3.425,6.703 -4.277,7.136 -5.211,7.472 L -5.819,10 h -3.88 l -0.608,-2.528 c -0.934,-0.336 -1.786,-0.808 -2.519,-1.461 l -2.493,0.779 -1.94,-3.454 1.882,-1.839 c -0.089,-0.487 -0.141,-0.985 -0.141,-1.499 0,-0.514 0.052,-1.014 0.141,-1.501 l -1.882,-1.843 1.94,-3.464 2.493,0.76 c 0.733,-0.653 1.585,-1.086 2.519,-1.422 L -9.699,-10 h 3.88 l 0.608,2.528 c 0.934,0.336 1.786,0.808 2.519,1.461 l 2.493,-0.779 1.94,3.454 -1.882,1.839 C -0.051,-1.01 0,-0.514 0,0 Z"
             style="fill:none;stroke:#5384ff;stroke-width:2;stroke-linecap:round;stroke-linejoin:round;stroke-miterlimit:10;stroke-dasharray:none;stroke-opacity:1"
             id="path236" /></g><g
           id="g238"
           transform="translate(13.5,11)"><path
             d="m 0,0 c 0,-1.657 -1.343,-3 -3,-3 -1.657,0 -3,1.343 -3,3 0,1.657 1.343,3 3,3 1.657,0 3,-1.343 3,-3 z"
             style="fill:none;stroke:#5384ff;stroke-width:2;stroke-linecap:round;stroke-linejoin:round;stroke-miterlimit:10;stroke-dasharray:none;stroke-opacity:1"
             id="path240" /></g></g></g></g></svg>
