<?xml version="1.0" encoding="UTF-8" standalone="no"?>
<svg
   xmlns:dc="http://purl.org/dc/elements/1.1/"
   xmlns:cc="http://creativecommons.org/ns#"
   xmlns:rdf="http://www.w3.org/1999/02/22-rdf-syntax-ns#"
   xmlns:svg="http://www.w3.org/2000/svg"
   xmlns="http://www.w3.org/2000/svg"
   xmlns:sodipodi="http://sodipodi.sourceforge.net/DTD/sodipodi-0.dtd"
   xmlns:inkscape="http://www.inkscape.org/namespaces/inkscape"
   version="1.1"
   id="svg28"
   xml:space="preserve"
   width="56"
   height="32"
   viewBox="0 0 56 32"
   sodipodi:docname="arrow.svg"
   inkscape:version="1.0.1 (1.0.1+r75)">
    <defs
     id="defs32"><clipPath
       clipPathUnits="userSpaceOnUse"
       id="clipPath44"><path
         d="M 0,24 H 42 V 0 H 0 Z"
         id="path42" /></clipPath></defs>
    <g
     id="g36"
     inkscape:groupmode="layer"
     inkscape:label="arrow"
     transform="matrix(1.3333333,0,0,-1.3333333,0,32)"><g
       id="g38"><g
         id="g40"
         clip-path="url(#clipPath44)"><g
           id="g46"
           transform="translate(5.2749,22.9541)"><path
             d="M 0,0 15.718,-15.718 31.642,0.206 31.643,0.205 c 0.539,0.52 1.273,0.841 2.082,0.841 1.657,0 3,-1.343 3,-3 0,-0.809 -0.321,-1.543 -0.841,-2.082 l 10e-4,-0.001 -18,-18 -0.001,10e-4 c -0.546,-0.566 -1.311,-0.918 -2.159,-0.918 h -0.007 -0.007 c -0.847,0 -1.613,0.352 -2.158,0.918 l -0.001,-10e-4 -18,18 0.007,0.008 c -0.516,0.539 -0.834,1.269 -0.834,2.075 0,1.657 1.343,3 3,3 C -1.365,1.046 -0.55,0.64 0,0"
             style="fill-opacity:1;fill-rule:evenodd;stroke:none"
             id="path48" /></g></g></g></g></svg>
