<?xml version="1.0" encoding="UTF-8" standalone="no"?>
<svg
   xmlns:dc="http://purl.org/dc/elements/1.1/"
   xmlns:cc="http://creativecommons.org/ns#"
   xmlns:rdf="http://www.w3.org/1999/02/22-rdf-syntax-ns#"
   xmlns:svg="http://www.w3.org/2000/svg"
   xmlns="http://www.w3.org/2000/svg"
   xmlns:sodipodi="http://sodipodi.sourceforge.net/DTD/sodipodi-0.dtd"
   xmlns:inkscape="http://www.inkscape.org/namespaces/inkscape"
   version="1.1"
   id="svg52"
   xml:space="preserve"
   width="59.416"
   height="59.417332"
   viewBox="0 0 59.416 59.417332"
   sodipodi:docname="clock-icon.svg"
   inkscape:version="1.0.1 (1.0.1+r75)">
    <metadata
     id="metadata58"><rdf:RDF><cc:Work
         rdf:about=""><dc:format>image/svg+xml</dc:format><dc:type
           rdf:resource="http://purl.org/dc/dcmitype/StillImage" /><dc:title></dc:title></cc:Work></rdf:RDF></metadata>
    <defs
     id="defs56"><clipPath
       clipPathUnits="userSpaceOnUse"
       id="clipPath68"><path
         d="M 0,44.563 H 44.562 V 0 H 0 Z"
         id="path66" /></clipPath></defs>
    <g
     id="g60"
     inkscape:groupmode="layer"
     inkscape:label="clock-icon"
     transform="matrix(1.3333333,0,0,-1.3333333,0,59.417333)"><g
       id="g62"><g
         id="g64"
         clip-path="url(#clipPath68)"><g
           id="g70"
           transform="translate(22.281,3.594)"><path
             d="m 0,0 c -10.304,0 -18.691,8.383 -18.691,18.687 0,10.309 8.387,18.692 18.691,18.692 10.305,0 18.688,-8.387 18.688,-18.692 C 18.688,8.383 10.305,0 0,0 m 0,40.969 c -12.285,0 -22.281,-9.996 -22.281,-22.282 0,-12.285 9.996,-22.281 22.281,-22.281 12.285,0 22.281,9.996 22.281,22.281 0,12.286 -9.996,22.282 -22.281,22.282"
             style="fill-opacity:1;fill-rule:nonzero;stroke:none"
             id="path72" /></g><g
           id="g74"
           transform="translate(31.5797,23.6802)"><path
             d="m 0,0 -8.337,-0.003 10e-4,9.364 c 0,0.989 -0.804,1.793 -1.792,1.793 -0.995,0 -1.799,-0.804 -1.796,-1.796 l -0.003,-11.156 c 0.003,-0.494 0.201,-0.942 0.527,-1.268 0.323,-0.323 0.774,-0.525 1.269,-0.527 L 0,-3.591 c 0.994,0 1.795,0.801 1.795,1.796 C 1.795,-0.807 0.991,-0.003 0,0"
             style="fill-opacity:1;fill-rule:nonzero;stroke:none"
             id="path76" /></g></g></g></g></svg>
