<?xml version="1.0" encoding="UTF-8" standalone="no"?>
<svg
   xmlns:dc="http://purl.org/dc/elements/1.1/"
   xmlns:cc="http://creativecommons.org/ns#"
   xmlns:rdf="http://www.w3.org/1999/02/22-rdf-syntax-ns#"
   xmlns:svg="http://www.w3.org/2000/svg"
   xmlns="http://www.w3.org/2000/svg"
   xmlns:sodipodi="http://sodipodi.sourceforge.net/DTD/sodipodi-0.dtd"
   xmlns:inkscape="http://www.inkscape.org/namespaces/inkscape"
   version="1.1"
   id="svg28"
   xml:space="preserve"
   width="60"
   height="61.333332"
   viewBox="0 0 60 61.333332"
   sodipodi:docname="done-icon.svg"
   inkscape:version="1.0.1 (1.0.1+r75)"><metadata
     id="metadata34"><rdf:RDF><cc:Work
         rdf:about=""><dc:format>image/svg+xml</dc:format><dc:type
           rdf:resource="http://purl.org/dc/dcmitype/StillImage" /><dc:title></dc:title></cc:Work></rdf:RDF></metadata><defs
     id="defs32"><clipPath
       clipPathUnits="userSpaceOnUse"
       id="clipPath46"><path
         d="m 0,5.62109 h 450 v 450 H 0 Z"
         id="path44" /></clipPath></defs><sodipodi:namedview
     pagecolor="#ffffff"
     bordercolor="#666666"
     borderopacity="1"
     objecttolerance="10"
     gridtolerance="10"
     guidetolerance="10"
     inkscape:pageopacity="0"
     inkscape:pageshadow="2"
     inkscape:window-width="1920"
     inkscape:window-height="978"
     id="namedview30"
     showgrid="false"
     inkscape:zoom="13.092392"
     inkscape:cx="30"
     inkscape:cy="30.666666"
     inkscape:window-x="0"
     inkscape:window-y="27"
     inkscape:window-maximized="1"
     inkscape:current-layer="g36" /><g
     id="g36"
     inkscape:groupmode="layer"
     inkscape:label="ink_ext_XXXXXX"
     transform="matrix(1.3333333,0,0,-1.3333333,0,61.333333)"><g
       id="g38"
       transform="scale(0.1)"><g
         id="g40"><g
           id="g42"
           clip-path="url(#clipPath46)"><path
             d="M 222.809,455.621 C 99.9609,455.621 0,355.66 0,232.801 0,109.949 99.9609,9.98828 222.809,9.98828 c 122.851,0 222.812,99.96072 222.812,222.81272 0,122.859 -99.961,222.82 -222.812,222.82 z m 0,-409.6913 c -103.039,0 -186.9106,83.8323 -186.9106,186.8713 0,103.09 83.8716,186.918 186.9106,186.918 103.05,0 186.882,-83.867 186.882,-186.918 0,-103.039 -83.832,-186.8713 -186.882,-186.8713 z"
             style="fill:#000000;fill-opacity:1;fill-rule:nonzero;stroke:none"
             id="path48" /><path
             d="M 293.828,303.859 189.84,199.828 151.762,237.922 c -6.992,6.988 -18.364,6.988 -25.352,0 -7.031,-7.031 -7.031,-18.402 0,-25.391 l 50.738,-50.781 c 3.512,-3.48 8.082,-5.238 12.692,-5.238 4.57,0 9.18,1.758 12.699,5.238 l 116.68,116.719 c 7.031,7.031 7.031,18.359 0,25.39 -6.989,6.993 -18.36,6.993 -25.391,0 z"
             style="fill:#000000;fill-opacity:1;fill-rule:nonzero;stroke:none"
             id="path50" /></g></g></g></g></svg>
