<?xml version="1.0" encoding="UTF-8" standalone="no"?>
<svg
   xmlns:dc="http://purl.org/dc/elements/1.1/"
   xmlns:cc="http://creativecommons.org/ns#"
   xmlns:rdf="http://www.w3.org/1999/02/22-rdf-syntax-ns#"
   xmlns:svg="http://www.w3.org/2000/svg"
   xmlns="http://www.w3.org/2000/svg"
   xmlns:sodipodi="http://sodipodi.sourceforge.net/DTD/sodipodi-0.dtd"
   xmlns:inkscape="http://www.inkscape.org/namespaces/inkscape"
   version="1.1"
   id="svg78"
   xml:space="preserve"
   width="288"
   height="289.33334"
   viewBox="0 0 288 289.33334"
   sodipodi:docname="options-icon.svg"
   inkscape:version="1.0.1 (1.0.1+r75)">
    <defs
     id="defs82"><clipPath
       clipPathUnits="userSpaceOnUse"
       id="clipPath96"><path
         d="M 0,0.121094 H 2160 V 2160.1211 H 0 Z"
         id="path94" /></clipPath></defs>
    <g
     id="g86"
     inkscape:groupmode="layer"
     inkscape:label="ink_ext_XXXXXX"
     transform="matrix(1.3333333,0,0,-1.3333333,0,289.33333)"><g
       id="g88"
       transform="scale(0.1)"><g
         id="g90"><g
           id="g92"
           clip-path="url(#clipPath96)"><path
             d="m 2143.32,1204.42 c -3.4,30.23 -38.63,52.96 -69.1,52.96 -98.52,0 -185.94,57.82 -222.62,147.31 -37.42,91.64 -13.28,198.48 60.12,265.82 23.12,21.13 25.94,56.52 6.56,81.09 -50.43,64.03 -107.73,121.88 -170.31,172 -24.49,19.64 -60.47,16.91 -81.72,-6.61 -64.06,-70.97 -179.18,-97.34 -268.13,-60.23 -92.53,38.94 -150.93,132.73 -145.19,233.4 1.87,31.64 -21.25,59.14 -52.77,62.81 -80.32,9.3 -161.33,9.57 -241.879,0.63 -31.133,-3.44 -54.261,-30.28 -53.203,-61.53 3.473,-99.69 -55.59,-191.83 -147.226,-229.37 -87.891,-35.9 -202.192,-9.73 -266.133,60.62 -21.129,23.17 -56.489,26.02 -81.129,6.8 -64.418,-50.55 -123.012,-108.44 -173.91,-171.95 -19.84,-24.69 -16.91,-60.47 6.41,-81.68 74.84,-67.78 98.98,-175.55 60.109,-268.25 C 266.09,1319.85 174.34,1262.93 69.3008,1262.93 35.1992,1264.02 10.9414,1241.13 7.19141,1210.12 -2.26953,1129.38 -2.37891,1047.07 6.71875,965.672 10.1211,935.309 46.4102,912.77 77.2305,912.77 170.859,915.16 260.699,857.23 298.441,765.469 336.02,673.828 311.84,567.031 238.32,499.609 215.309,478.48 212.379,443.172 231.801,418.629 281.719,355 339.059,297.109 401.84,246.559 c 24.64,-19.84 60.461,-17.071 81.832,6.492 64.34,71.129 179.418,97.461 268.008,60.269 C 844.488,274.488 902.852,180.699 897.148,80 895.27,48.3594 918.48,20.7813 949.879,17.1914 990.98,12.3789 1032.3,10 1073.75,10 c 39.34,0 78.67,2.1484 118.01,6.5195 31.17,3.4414 54.26,30.3203 53.2,61.5703 -3.59,99.6482 55.59,191.7892 147.11,229.2622 88.48,36.128 202.27,9.679 266.25,-60.551 21.25,-23.129 56.37,-25.942 81.13,-6.801 64.3,50.43 122.78,108.281 173.91,171.949 19.84,24.653 17.03,60.473 -6.41,81.723 -74.84,67.738 -99.1,175.547 -60.23,268.168 36.52,87.18 124.88,145.738 219.92,145.738 l 13.28,-0.348 c 30.86,-2.5 59.22,21.25 62.93,52.731 9.49,80.819 9.61,163.049 0.47,244.459 z M 1076.72,724.18 c -197.74,0 -358.56,160.859 -358.56,358.59 0,197.74 160.82,358.6 358.56,358.6 197.77,0 358.59,-160.86 358.59,-358.6 0,-197.731 -160.82,-358.59 -358.59,-358.59 z"
             style="fill-opacity:1;fill-rule:evenodd;stroke:none"
             id="path98" /></g></g></g></g></svg>
