<?xml version="1.0" encoding="UTF-8" standalone="no"?>
<svg
   xmlns:dc="http://purl.org/dc/elements/1.1/"
   xmlns:cc="http://creativecommons.org/ns#"
   xmlns:rdf="http://www.w3.org/1999/02/22-rdf-syntax-ns#"
   xmlns:svg="http://www.w3.org/2000/svg"
   xmlns="http://www.w3.org/2000/svg"
   xmlns:sodipodi="http://sodipodi.sourceforge.net/DTD/sodipodi-0.dtd"
   xmlns:inkscape="http://www.inkscape.org/namespaces/inkscape"
   version="1.1"
   id="svg160"
   xml:space="preserve"
   width="66.666664"
   height="81.333336"
   viewBox="0 0 66.666664 81.333336"
   sodipodi:docname="password-icon.svg"
   inkscape:version="1.0.1 (1.0.1+r75)">

    <defs
     id="defs164"><clipPath
       clipPathUnits="userSpaceOnUse"
       id="clipPath178"><path
         d="m 0,5.12109 h 500 v 600 H 0 Z"
         id="path176" /></clipPath></defs><sodipodi:namedview
     pagecolor="#ffffff"
     bordercolor="#666666"
     borderopacity="1"
     objecttolerance="10"
     gridtolerance="10"
     guidetolerance="10"
     inkscape:pageopacity="0"
     inkscape:pageshadow="2"
     inkscape:window-width="1920"
     inkscape:window-height="978"
     id="namedview162"
     showgrid="false"
     inkscape:zoom="3.4906151"
     inkscape:cx="4.1628826"
     inkscape:cy="50.916407"
     inkscape:window-x="0"
     inkscape:window-y="27"
     inkscape:window-maximized="1"
     inkscape:current-layer="g168" /><g
     id="g168"
     inkscape:groupmode="layer"
     inkscape:label="ink_ext_XXXXXX"
     transform="matrix(1.3333333,0,0,-1.3333333,0,81.333333)"><g
       id="g170"
       transform="scale(0.1)"><g
         id="g172"><g
           id="g174"
           clip-path="url(#clipPath178)"><path
             d="m 475.469,350.859 h -74.61 v 97.5 c 0,45.391 -14.257,82.891 -43.129,112.5 -28.859,29.653 -65.23,44.262 -109.492,44.262 -44.609,0 -81.359,-14.609 -110.226,-44.262 -28.91,-29.609 -43.5237,-67.109 -43.5237,-112.5 v -97.5 H 20.6211 C 8.98047,350.859 0,341.879 0,330.238 V 30.6289 C 0,18.9883 8.98047,10 20.6211,10 H 475.469 c 10.902,0 20.621,8.9883 20.621,20.6289 V 330.238 c 0,11.641 -9.719,20.621 -20.621,20.621 z m -339.34,97.5 c 0,33.75 10.473,61.532 31.141,82.891 20.968,21.762 47.96,32.621 80.968,32.621 32.621,0 59.141,-10.98 79.883,-32.621 20.508,-21.48 31.141,-49.141 31.141,-82.891 v -97.5 H 136.129 Z M 454.488,51.6406 H 41.64 v 257.969 h 412.848 z"
             style="fill-opacity:1;fill-rule:nonzero;stroke:none"
             id="path180" /><path
             d="M 227.27,179.891 V 93.6406 c 0,-11.6406 9.332,-21.4101 20.968,-21.4101 11.641,0 20.633,9.7695 20.633,21.4101 v 86.2504 c 17.609,7.847 30,23.98 30,41.988 0,12.383 -5.43,23.043 -15.75,32.223 -10.312,9.218 -21.75,13.91 -34.883,13.91 -13.508,0 -25.386,-4.614 -35.968,-13.91 -10.43,-9.102 -15.79,-19.84 -15.79,-32.223 0,-17.617 13.129,-34.141 30.79,-41.988 z"
             style="fill-opacity:1;fill-rule:nonzero;stroke:none"
             id="path182" /></g></g></g></g></svg>
