<?xml version="1.0" encoding="UTF-8" standalone="no"?>
<svg
   xmlns:dc="http://purl.org/dc/elements/1.1/"
   xmlns:cc="http://creativecommons.org/ns#"
   xmlns:rdf="http://www.w3.org/1999/02/22-rdf-syntax-ns#"
   xmlns:svg="http://www.w3.org/2000/svg"
   xmlns="http://www.w3.org/2000/svg"
   xmlns:sodipodi="http://sodipodi.sourceforge.net/DTD/sodipodi-0.dtd"
   xmlns:inkscape="http://www.inkscape.org/namespaces/inkscape"
   version="1.1"
   id="svg71"
   width="319.45615"
   height="319.28629"
   viewBox="0 0 319.45615 319.28629"
   sodipodi:docname="search-icon.svg"
   inkscape:version="1.0.1 (1.0.1+r75)">
  <g
     inkscape:groupmode="layer"
     inkscape:label="Image"
     id="g79"
     transform="translate(737.05979,-0.70114994)">
    <path
       style="stroke-width:1.33333"
       d="m -502.11843,277.26132 -42.72611,-42.72611 -11.26502,5.38552 c -16.16324,7.72723 -29.504,10.88927 -49.26503,11.67683 -32.79718,1.30709 -61.63064,-8.48119 -87.02106,-29.54164 -31.39369,-26.03995 -49.0443,-70.72148 -43.72562,-110.68898 3.62479,-27.23866 14.82272,-50.909779 33.27349,-70.336316 18.31601,-19.284643 38.27364,-30.971461 63.66478,-37.2809083 17.35086,-4.31152031 42.87638,-4.02163593 60.83262,0.6908548 60.6999,15.9302645 100.98778,73.5317725 94.25092,134.7550595 -1.7068,15.51102 -7.25697,33.75476 -14.03616,46.1377 L -502.8803,194 l 42.63832,42.12999 42.63832,42.13 -20.89433,20.86372 -20.89433,20.86372 z m -87.93772,-74.59084 c 27.68779,-7.08135 50.13915,-29.51773 57.3754,-57.33715 3.06057,-11.76618 2.10459,-33.31035 -1.99516,-44.9637 -8.08811,-22.990026 -28.77363,-42.634694 -52.69868,-50.046995 -12.08679,-3.74465 -32.28847,-3.959679 -44,-0.468344 -27.34835,8.152845 -49.0273,29.930448 -56.01375,56.268639 -3.40139,12.82291 -2.8419,31.52462 1.31343,43.90314 4.30425,12.82214 8.50218,20.08336 16.96252,29.34032 19.99466,21.87734 50.02389,30.72932 79.05624,23.30409 z"
       id="path83" />
  </g>
</svg>
