<?xml version="1.0" encoding="UTF-8" standalone="no"?>
<svg
   xmlns:dc="http://purl.org/dc/elements/1.1/"
   xmlns:cc="http://creativecommons.org/ns#"
   xmlns:rdf="http://www.w3.org/1999/02/22-rdf-syntax-ns#"
   xmlns:svg="http://www.w3.org/2000/svg"
   xmlns="http://www.w3.org/2000/svg"
   xmlns:sodipodi="http://sodipodi.sourceforge.net/DTD/sodipodi-0.dtd"
   xmlns:inkscape="http://www.inkscape.org/namespaces/inkscape"
   version="1.1"
   id="svg236"
   xml:space="preserve"
   width="32"
   height="36"
   viewBox="0 0 32 36"
   sodipodi:docname="username-icon.svg"
   inkscape:version="1.0.1 (1.0.1+r75)">
    <defs
     id="defs240"><clipPath
       clipPathUnits="userSpaceOnUse"
       id="clipPath254"><path
         d="M 0,6 H 240 V 266 H 0 Z"
         id="path252" /></clipPath></defs>

    <g
     id="g244"
     inkscape:groupmode="layer"
     inkscape:label="ink_ext_XXXXXX"
     transform="matrix(1.3333333,0,0,-1.3333333,0,36)"><g
       id="g246"
       transform="scale(0.1)"><g
         id="g248"><g
           id="g250"
           clip-path="url(#clipPath254)"><path
             d="m 174.059,108.891 c 20.472,16.089 33.64,41.058 33.64,69.097 0,48.602 -39.379,88.012 -87.969,88.012 -48.6402,0 -88.0112,-39.41 -88.0112,-88.012 0,-28.039 13.1601,-53.008 33.6328,-69.097 C 28.6719,90.1797 2.85156,53.2695 0,9.98047 h 16.0195 c 3.0821,40.55083 29.4102,74.50003 65.6602,88.75003 11.5195,-5.5391 24.4103,-8.75 38.0503,-8.75 13.629,0 26.481,3.2109 38,8.75 36.25,-14.25 62.579,-48.1992 65.668,-88.75003 H 239.41 C 236.559,53.2695 210.738,90.1797 174.059,108.891 Z M 119.73,106 c -39.7691,0 -72.0308,32.23 -72.0308,71.988 0,39.774 32.2617,71.992 72.0308,71.992 39.758,0 71.989,-32.218 71.989,-71.992 C 191.719,138.23 159.488,106 119.73,106 Z"
             style="fill-opacity:1;fill-rule:evenodd;stroke:none"
             id="path256" /></g></g></g></g></svg>
